<svg xmlns="http://www.w3.org/2000/svg" viewBox="0 0 128 128" fill="none">
  <!-- Body -->
  <ellipse cx="64" cy="82" rx="30" ry="28" fill="#10B981"/>
  <ellipse cx="64" cy="86" rx="20" ry="16" fill="#6EE7B7"/>
  <!-- Tail -->
  <path d="M94 80 Q110 60 104 44 Q100 36 96 42" stroke="#059669" stroke-width="4" fill="none" stroke-linecap="round"/>
  <!-- Head -->
  <circle cx="64" cy="42" r="26" fill="#10B981"/>
  <!-- Ears -->
  <path d="M42 26 L38 8 L52 22Z" fill="#10B981"/>
  <path d="M42 26 L40 12 L50 22Z" fill="#6EE7B7"/>
  <path d="M86 26 L90 8 L76 22Z" fill="#10B981"/>
  <path d="M86 26 L88 12 L78 22Z" fill="#6EE7B7"/>
  <!-- Eyes -->
  <ellipse cx="52" cy="40" rx="6" ry="7" fill="white"/>
  <ellipse cx="76" cy="40" rx="6" ry="7" fill="white"/>
  <ellipse cx="53" cy="41" rx="3.5" ry="4" fill="#1E293B"/>
  <ellipse cx="77" cy="41" rx="3.5" ry="4" fill="#1E293B"/>
  <circle cx="55" cy="39" r="1.5" fill="white"/>
  <circle cx="79" cy="39" r="1.5" fill="white"/>
  <!-- Nose -->
  <path d="M62 48 L64 50 L66 48Z" fill="#F472B6"/>
  <!-- Mouth -->
  <path d="M58 52 Q64 56 70 52" stroke="#065F46" stroke-width="1.5" fill="none" stroke-linecap="round"/>
  <!-- Whiskers -->
  <line x1="26" y1="44" x2="46" y2="46" stroke="#065F46" stroke-width="1.5" stroke-linecap="round"/>
  <line x1="26" y1="50" x2="46" y2="50" stroke="#065F46" stroke-width="1.5" stroke-linecap="round"/>
  <line x1="82" y1="46" x2="102" y2="44" stroke="#065F46" stroke-width="1.5" stroke-linecap="round"/>
  <line x1="82" y1="50" x2="102" y2="50" stroke="#065F46" stroke-width="1.5" stroke-linecap="round"/>
  <!-- Question mark above head (curious!) -->
  <text x="70" y="10" font-size="16" font-weight="bold" fill="#059669" font-family="sans-serif">?</text>
  <!-- Paws -->
  <circle cx="48" cy="108" r="6" fill="#059669"/>
  <circle cx="80" cy="108" r="6" fill="#059669"/>
</svg>
